{"title":"Drunken.Master.1978.720p,BRRip..x264.Hun.Eng","uid":11270729,"size":12379913407,"categoryP":"video","categoryS":"hd___movies","magnet":"?xt=urn:btih:1bdba218dbb6d2a1ac63298e1e9390d88a84b28b&amp;dn=Drunken.Master.1978.720p%2CBRRip..x264.Hun.Eng&amp;tr=udp%3A%2F%2Ftracker.openbittorrent.com%3A80&amp;tr=udp%3A%2F%2Fopen.demonii.com%3A1337&amp;tr=udp%3A%2F%2Ftracker.coppersurfer.tk%3A6969&amp;tr=udp%3A%2F%2Fexodus.desync.com%3A6969","seeders":0,"leechers":1,"uploader":"rinoceros","files":-1,"time":1414078054,"description":"Drunken.Master.1978.720p,BRRip..x264.Hun.Eng\n\nGeneral\nUnique ID                                : 190282769977162275446567095433364779068 (0x8F2720E2C11BF472BCF6CD36138C303C)\nComplete name                            : F:1080pDrunken.Master.1978.720p,BRRip..x264.Hun.EngDrunken Master (1978) 720p.mkv\nFormat                                   : Matroska\nFormat version                           : Version 4 / Version 2\nFile size                                : 11.5 GiB\nDuration                                 : 1h 51mn\nOverall bit rate                         : 14.8 Mbps\nEncoded date                             : UTC 2014-10-23 13:04:48\nWriting application                      : mkvmerge v7.2.0 ('On Every Street') 64bit built on Sep 13 2014 15:52:10\nWriting library                          : libebml v1.3.0 + libmatroska v1.4.1\nDURATION                                 : 01:50:04.725000000\nNUMBER_OF_FRAMES                         : 943\nNUMBER_OF_BYTES                          : 33170\n_STATISTICS_WRITING_APP                  : mkvmerge v7.2.0 ('On Every Street') 64bit built on Sep 13 2014 15:52:10\n_STATISTICS_WRITING_DATE_UTC             : 2014-10-23 13:04:48\n_STATISTICS_TAGS                         : BPS DURATION NUMBER_OF_FRAMES NUMBER_OF_BYTES\n\nVideo\nID                                       : 1\nFormat                                   : AVC\nFormat/Info                              : Advanced Video Codec\nFormat profile                           : &lt;a class=&quot;__cf_email__&quot; href=&quot;/cdn-cgi/l/email-protection&quot; data-cfemail=&quot;c68eafa1ae868af2e8f7&quot;&gt;[email&amp;#160;protected]&lt;/a&gt;&lt;script cf-hash='f9e31' type=&quot;text/javascript&quot;&gt;\n/* &lt;![CDATA[ */!function(){try{var t=&quot;currentScript&quot;in document?document.currentScript:function(){for(var t=document.getElementsByTagName(&quot;script&quot;),e=t.length;e--;)if(t[e].getAttribute(&quot;cf-hash&quot;))return t[e]}();if(t&amp;&amp;t.previousSibling){var e,r,n,i,c=t.previousSibling,a=c.getAttribute(&quot;data-cfemail&quot;);if(a){for(e=&quot;&quot;,r=parseInt(a.substr(0,2),16),n=2;a.length-n;n+=2)i=parseInt(a.substr(n,2),16)^r,e+=String.fromCharCode(i);e=document.createTextNode(e),c.parentNode.replaceChild(e,c)}}}catch(u){}}();/* ]]&gt; */&lt;/script&gt;\nFormat settings, CABAC                   : Yes\nFormat settings, ReFrames                : 12 frames\nCodec ID                                 : V_MPEG4/ISO/AVC\nDuration                                 : 1h 51mn\nBit rate                                 : 14.2 Mbps\nWidth                                    : 1 280 pixels\nHeight                                   : 536 pixels\nDisplay aspect ratio                     : 2.40:1\nFrame rate mode                          : Constant\nFrame rate                               : 23.976 fps\nColor space                              : YUV\nChroma subsampling                       : 4:2:0\nBit depth                                : 8 bits\nScan type                                : Progressive\nBits/(Pixel*Frame)                       : 0.861\nStream size                              : 11.0 GiB (95%)\nTitle                                    : Drunken Master (1978) 720p\nWriting library                          : x264 core 133 r2334 a3ac64b\nEncoding settings                        : cabac=1 / ref=12 / deblock=1:-3:-3 / analyse=0x3:0x133 / me=tesa / subme=10 / psy=1 / psy_rd=0.95:0.00 / mixed_ref=1 / me_range=16 / chroma_me=1 / trellis=2 / 8x8dct=1 / cqm=0 / deadzone=21,11 / fast_pskip=0 / chroma_qp_offset=-2 / threads=12 / lookahead_threads=2 / sliced_threads=0 / nr=0 / decimate=0 / interlaced=0 / bluray_compat=0 / constrained_intra=0 / bframes=8 / b_pyramid=2 / b_adapt=2 / b_bias=0 / direct=3 / weightb=1 / open_gop=0 / weightp=2 / keyint=250 / keyint_min=23 / scenecut=40 / intra_refresh=0 / rc_lookahead=60 / rc=crf / mbtree=0 / crf=16.0 / qcomp=0.70 / qpmin=0 / qpmax=69 / qpstep=4 / vbv_maxrate=50000 / vbv_bufsize=62500 / crf_max=0.0 / nal_hrd=none / ip_ratio=1.10 / pb_ratio=1.10 / aq=1:0.65\nDefault                                  : Yes\nForced                                   : No\nMatrix coefficients                      : BT.709\nDURATION                                 : 01:51:11.665000000\nNUMBER_OF_FRAMES                         : 159960\nNUMBER_OF_BYTES                          : 12057560567\n_STATISTICS_WRITING_APP                  : mkvmerge v7.2.0 ('On Every Street') 64bit built on Sep 13 2014 15:52:10\n_STATISTICS_WRITING_DATE_UTC             : 2014-10-23 13:04:48\n_STATISTICS_TAGS                         : BPS DURATION NUMBER_OF_FRAMES NUMBER_OF_BYTES\n\nAudio #1\nID                                       : 2\nFormat                                   : AC-3\nFormat/Info                              : Audio Coding 3\nFormat profile                           : Dolby Digital\nMode extension                           : CM (complete main)\nFormat settings, Endianness              : Big\nCodec ID                                 : A_AC3\nDuration                                 : 1h 51mn\nBit rate mode                            : Constant\nBit rate                                 : 192 Kbps\nChannel(s)                               : 2 channels\nChannel positions                        : Front: L R\nSampling rate                            : 48.0 KHz\nBit depth                                : 16 bits\nCompression mode                         : Lossy\nStream size                              : 153 MiB (1%)\nTitle                                    : 2.0\nLanguage                                 : Hungarian\nDefault                                  : Yes\nForced                                   : No\n\nAudio #2\nID                                       : 3\nFormat                                   : AC-3\nFormat/Info                              : Audio Coding 3\nFormat profile                           : Dolby Digital\nMode extension                           : CM (complete main)\nFormat settings, Endianness              : Big\nCodec ID                                 : A_AC3\nDuration                                 : 1h 51mn\nBit rate mode                            : Constant\nBit rate                                 : 192 Kbps\nChannel(s)                               : 2 channels\nChannel positions                        : Front: L R\nSampling rate                            : 48.0 KHz\nBit depth                                : 16 bits\nCompression mode                         : Lossy\nStream size                              : 153 MiB (1%)\nTitle                                    : 2.0\nLanguage                                 : English\nDefault                                  : No\nForced                                   : No\n\nText #1\nID                                       : 4\nFormat                                   : UTF-8\nCodec ID                                 : S_TEXT/UTF8\nCodec ID/Info                            : UTF-8 Plain Text\nTitle                                    : full\nLanguage                                 : Hungarian\nDefault                                  : No\nForced                                   : No\n\nText #2\nID                                       : 5\nFormat                                   : UTF-8\nCodec ID                                 : S_TEXT/UTF8\nCodec ID/Info                            : UTF-8 Plain Text\nTitle                                    : full\nLanguage                                 : English\nDefault                                  : No\nForced                                   : No\n &lt;a href=&quot;\nhttp://www.port.hu/reszeges_karatemester_jui_kuen/pls/fi/films.film_page?i_where=2&amp;i_film_id=40232&amp;i_city_id=-1&amp;i_county_id=-1&amp;i_topic_id=2&quot; rel=&quot;nofollow&quot; target=&quot;_NEW&quot;&gt;\nhttp://www.port.hu/reszeges_karatemester_jui_kuen/pls/fi/films.film_page?i_where=2&amp;i_film_id=40232&amp;i_city_id=-1&amp;i_county_id=-1&amp;i_topic_id=2&lt;/a&gt;","torrent":{"xt":"urn:btih:1bdba218dbb6d2a1ac63298e1e9390d88a84b28b","amp;dn":"Drunken.Master.1978.720p%2CBRRip..x264.Hun.Eng","amp;tr":["udp%3A%2F%2Ftracker.openbittorrent.com%3A80","udp%3A%2F%2Fopen.demonii.com%3A1337","udp%3A%2F%2Ftracker.coppersurfer.tk%3A6969","udp%3A%2F%2Fexodus.desync.com%3A6969"],"infoHash":"1bdba218dbb6d2a1ac63298e1e9390d88a84b28b","infoHashBuffer":{"type":"Buffer","data":[27,219,162,24,219,182,210,161,172,99,41,142,30,147,144,216,138,132,178,139]},"announce":[],"urlList":[]}}